<?xml version="1.0" encoding="UTF-8"?>
<svg width="1600" height="1200" viewBox="0 0 1600 1200" xmlns="http://www.w3.org/2000/svg">
  <!-- Title -->
  <text x="800" y="30" text-anchor="middle" font-family="Arial, sans-serif" font-size="18" font-weight="bold" fill="#2c3e50">
    Figure 2.1 : Diagramme de Cas d'Utilisation Global - Plateforme Médicale Intelligente
  </text>
  
  <!-- System boundary -->
  <rect x="300" y="80" width="1000" height="1000" fill="none" stroke="#34495e" stroke-width="3" rx="10"/>
  <text x="800" y="105" text-anchor="middle" font-family="Arial, sans-serif" font-size="16" font-weight="bold" fill="#34495e">
    Système de Plateforme Médicale Intelligente
  </text>
  
  <!-- Actors (Left side) -->
  <g id="actors_left">
    <!-- Patient -->
    <g id="patient_actor">
      <circle cx="120" cy="200" r="15" fill="none" stroke="#2c3e50" stroke-width="2"/>
      <line x1="120" y1="215" x2="120" y2="250" stroke="#2c3e50" stroke-width="2"/>
      <line x1="105" y1="230" x2="135" y2="230" stroke="#2c3e50" stroke-width="2"/>
      <line x1="120" y1="250" x2="105" y2="280" stroke="#2c3e50" stroke-width="2"/>
      <line x1="120" y1="250" x2="135" y2="280" stroke="#2c3e50" stroke-width="2"/>
      <text x="120" y="300" text-anchor="middle" font-family="Arial, sans-serif" font-size="12" font-weight="bold" fill="#2c3e50">Patient</text>
    </g>
    
    <!-- Médecin -->
    <g id="medecin_actor">
      <circle cx="120" cy="380" r="15" fill="none" stroke="#2c3e50" stroke-width="2"/>
      <line x1="120" y1="395" x2="120" y2="430" stroke="#2c3e50" stroke-width="2"/>
      <line x1="105" y1="410" x2="135" y2="410" stroke="#2c3e50" stroke-width="2"/>
      <line x1="120" y1="430" x2="105" y2="460" stroke="#2c3e50" stroke-width="2"/>
      <line x1="120" y1="430" x2="135" y2="460" stroke="#2c3e50" stroke-width="2"/>
      <text x="120" y="480" text-anchor="middle" font-family="Arial, sans-serif" font-size="12" font-weight="bold" fill="#2c3e50">Médecin</text>
    </g>
    
    <!-- Administrateur -->
    <g id="admin_actor">
      <circle cx="120" cy="560" r="15" fill="none" stroke="#2c3e50" stroke-width="2"/>
      <line x1="120" y1="575" x2="120" y2="610" stroke="#2c3e50" stroke-width="2"/>
      <line x1="105" y1="590" x2="135" y2="590" stroke="#2c3e50" stroke-width="2"/>
      <line x1="120" y1="610" x2="105" y2="640" stroke="#2c3e50" stroke-width="2"/>
      <line x1="120" y1="610" x2="135" y2="640" stroke="#2c3e50" stroke-width="2"/>
      <text x="120" y="660" text-anchor="middle" font-family="Arial, sans-serif" font-size="12" font-weight="bold" fill="#2c3e50">Administrateur</text>
    </g>
    
    <!-- Super Administrateur -->
    <g id="super_admin_actor">
      <circle cx="120" cy="740" r="15" fill="none" stroke="#2c3e50" stroke-width="2"/>
      <line x1="120" y1="755" x2="120" y2="790" stroke="#2c3e50" stroke-width="2"/>
      <line x1="105" y1="770" x2="135" y2="770" stroke="#2c3e50" stroke-width="2"/>
      <line x1="120" y1="790" x2="105" y2="820" stroke="#2c3e50" stroke-width="2"/>
      <line x1="120" y1="790" x2="135" y2="820" stroke="#2c3e50" stroke-width="2"/>
      <text x="120" y="840" text-anchor="middle" font-family="Arial, sans-serif" font-size="12" font-weight="bold" fill="#2c3e50">Super Admin</text>
    </g>
  </g>
  
  <!-- Actors (Right side) -->
  <g id="actors_right">
    <!-- Institution -->
    <g id="institution_actor">
      <circle cx="1480" cy="200" r="15" fill="none" stroke="#2c3e50" stroke-width="2"/>
      <line x1="1480" y1="215" x2="1480" y2="250" stroke="#2c3e50" stroke-width="2"/>
      <line x1="1465" y1="230" x2="1495" y2="230" stroke="#2c3e50" stroke-width="2"/>
      <line x1="1480" y1="250" x2="1465" y2="280" stroke="#2c3e50" stroke-width="2"/>
      <line x1="1480" y1="250" x2="1495" y2="280" stroke="#2c3e50" stroke-width="2"/>
      <text x="1480" y="300" text-anchor="middle" font-family="Arial, sans-serif" font-size="12" font-weight="bold" fill="#2c3e50">Institution</text>
    </g>
    
    <!-- Pharmacie -->
    <g id="pharmacy_actor">
      <circle cx="1480" cy="380" r="15" fill="none" stroke="#2c3e50" stroke-width="2"/>
      <line x1="1480" y1="395" x2="1480" y2="430" stroke="#2c3e50" stroke-width="2"/>
      <line x1="1465" y1="410" x2="1495" y2="410" stroke="#2c3e50" stroke-width="2"/>
      <line x1="1480" y1="430" x2="1465" y2="460" stroke="#2c3e50" stroke-width="2"/>
      <line x1="1480" y1="430" x2="1495" y2="460" stroke="#2c3e50" stroke-width="2"/>
      <text x="1480" y="480" text-anchor="middle" font-family="Arial, sans-serif" font-size="12" font-weight="bold" fill="#2c3e50">Pharmacie</text>
    </g>
    
    <!-- Hôpital -->
    <g id="hospital_actor">
      <circle cx="1480" cy="560" r="15" fill="none" stroke="#2c3e50" stroke-width="2"/>
      <line x1="1480" y1="575" x2="1480" y2="610" stroke="#2c3e50" stroke-width="2"/>
      <line x1="1465" y1="590" x2="1495" y2="590" stroke="#2c3e50" stroke-width="2"/>
      <line x1="1480" y1="610" x2="1465" y2="640" stroke="#2c3e50" stroke-width="2"/>
      <line x1="1480" y1="610" x2="1495" y2="640" stroke="#2c3e50" stroke-width="2"/>
      <text x="1480" y="660" text-anchor="middle" font-family="Arial, sans-serif" font-size="12" font-weight="bold" fill="#2c3e50">Hôpital</text>
    </g>
    
    <!-- Laboratoire -->
    <g id="laboratory_actor">
      <circle cx="1480" cy="740" r="15" fill="none" stroke="#2c3e50" stroke-width="2"/>
      <line x1="1480" y1="755" x2="1480" y2="790" stroke="#2c3e50" stroke-width="2"/>
      <line x1="1465" y1="770" x2="1495" y2="770" stroke="#2c3e50" stroke-width="2"/>
      <line x1="1480" y1="790" x2="1465" y2="820" stroke="#2c3e50" stroke-width="2"/>
      <line x1="1480" y1="790" x2="1495" y2="820" stroke="#2c3e50" stroke-width="2"/>
      <text x="1480" y="840" text-anchor="middle" font-family="Arial, sans-serif" font-size="12" font-weight="bold" fill="#2c3e50">Laboratoire</text>
    </g>
  </g>
  
  <!-- Use Cases - Module Authentification -->
  <g id="auth_module">
    <rect x="350" y="130" width="200" height="80" fill="#ecf0f1" stroke="#95a5a6" stroke-width="1" rx="5"/>
    <text x="450" y="145" text-anchor="middle" font-family="Arial, sans-serif" font-size="10" font-weight="bold" fill="#2c3e50">Module Authentification</text>
    
    <ellipse cx="450" cy="170" rx="80" ry="15" fill="#3498db" stroke="#2980b9" stroke-width="2"/>
    <text x="450" y="175" text-anchor="middle" font-family="Arial, sans-serif" font-size="9" fill="white">S'authentifier</text>
    
    <ellipse cx="450" cy="195" rx="80" ry="15" fill="#3498db" stroke="#2980b9" stroke-width="2"/>
    <text x="450" y="200" text-anchor="middle" font-family="Arial, sans-serif" font-size="9" fill="white">Créer compte</text>
  </g>
  
  <!-- Use Cases - Module Gestion RDV -->
  <g id="rdv_module">
    <rect x="600" y="130" width="250" height="150" fill="#ecf0f1" stroke="#95a5a6" stroke-width="1" rx="5"/>
    <text x="725" y="145" text-anchor="middle" font-family="Arial, sans-serif" font-size="10" font-weight="bold" fill="#2c3e50">Module Gestion Rendez-vous</text>
    
    <ellipse cx="650" cy="170" rx="80" ry="15" fill="#e74c3c" stroke="#c0392b" stroke-width="2"/>
    <text x="650" y="175" text-anchor="middle" font-family="Arial, sans-serif" font-size="9" fill="white">Prendre RDV</text>
    
    <ellipse cx="800" cy="170" rx="80" ry="15" fill="#e74c3c" stroke="#c0392b" stroke-width="2"/>
    <text x="800" y="175" text-anchor="middle" font-family="Arial, sans-serif" font-size="9" fill="white">Gérer planning</text>
    
    <ellipse cx="650" cy="210" rx="80" ry="15" fill="#e74c3c" stroke="#c0392b" stroke-width="2"/>
    <text x="650" y="215" text-anchor="middle" font-family="Arial, sans-serif" font-size="9" fill="white">Annuler RDV</text>
    
    <ellipse cx="800" cy="210" rx="80" ry="15" fill="#e74c3c" stroke="#c0392b" stroke-width="2"/>
    <text x="800" y="215" text-anchor="middle" font-family="Arial, sans-serif" font-size="9" fill="white">Patient Walk-in</text>
    
    <ellipse cx="725" cy="250" rx="80" ry="15" fill="#e74c3c" stroke="#c0392b" stroke-width="2"/>
    <text x="725" y="255" text-anchor="middle" font-family="Arial, sans-serif" font-size="9" fill="white">Confirmer RDV</text>
  </g>
  
  <!-- Use Cases - Module Dossiers Médicaux -->
  <g id="medical_module">
    <rect x="900" y="130" width="250" height="150" fill="#ecf0f1" stroke="#95a5a6" stroke-width="1" rx="5"/>
    <text x="1025" y="145" text-anchor="middle" font-family="Arial, sans-serif" font-size="10" font-weight="bold" fill="#2c3e50">Module Dossiers Médicaux</text>
    
    <ellipse cx="950" cy="170" rx="80" ry="15" fill="#f39c12" stroke="#e67e22" stroke-width="2"/>
    <text x="950" y="175" text-anchor="middle" font-family="Arial, sans-serif" font-size="9" fill="white">Consulter dossier</text>
    
    <ellipse cx="1100" cy="170" rx="80" ry="15" fill="#f39c12" stroke="#e67e22" stroke-width="2"/>
    <text x="1100" y="175" text-anchor="middle" font-family="Arial, sans-serif" font-size="9" fill="white">Modifier dossier</text>
    
    <ellipse cx="950" cy="210" rx="80" ry="15" fill="#f39c12" stroke="#e67e22" stroke-width="2"/>
    <text x="950" y="215" text-anchor="middle" font-family="Arial, sans-serif" font-size="9" fill="white">Ajouter résultats</text>
    
    <ellipse cx="1100" cy="210" rx="80" ry="15" fill="#f39c12" stroke="#e67e22" stroke-width="2"/>
    <text x="1100" y="175" text-anchor="middle" font-family="Arial, sans-serif" font-size="9" fill="white">Créer consultation</text>
    
    <ellipse cx="1025" cy="250" rx="80" ry="15" fill="#f39c12" stroke="#e67e22" stroke-width="2"/>
    <text x="1025" y="255" text-anchor="middle" font-family="Arial, sans-serif" font-size="9" fill="white">Gérer antécédents</text>
  </g>
  
  <!-- Use Cases - Module Géolocalisation -->
  <g id="geo_module">
    <rect x="350" y="320" width="200" height="120" fill="#ecf0f1" stroke="#95a5a6" stroke-width="1" rx="5"/>
    <text x="450" y="335" text-anchor="middle" font-family="Arial, sans-serif" font-size="10" font-weight="bold" fill="#2c3e50">Module Géolocalisation</text>
    
    <ellipse cx="450" cy="360" rx="80" ry="15" fill="#9b59b6" stroke="#8e44ad" stroke-width="2"/>
    <text x="450" y="365" text-anchor="middle" font-family="Arial, sans-serif" font-size="9" fill="white">Rechercher médecin</text>
    
    <ellipse cx="450" cy="390" rx="80" ry="15" fill="#9b59b6" stroke="#8e44ad" stroke-width="2"/>
    <text x="450" y="395" text-anchor="middle" font-family="Arial, sans-serif" font-size="9" fill="white">Localiser cabinet</text>
    
    <ellipse cx="450" cy="420" rx="80" ry="15" fill="#9b59b6" stroke="#8e44ad" stroke-width="2"/>
    <text x="450" y="425" text-anchor="middle" font-family="Arial, sans-serif" font-size="9" fill="white">Filtrer par distance</text>
  </g>
  
  <!-- Use Cases - Module IA Médicale -->
  <g id="ai_module">
    <rect x="600" y="320" width="200" height="120" fill="#ecf0f1" stroke="#95a5a6" stroke-width="1" rx="5"/>
    <text x="700" y="335" text-anchor="middle" font-family="Arial, sans-serif" font-size="10" font-weight="bold" fill="#2c3e50">Module IA Médicale</text>
    
    <ellipse cx="700" cy="360" rx="80" ry="15" fill="#e91e63" stroke="#ad1457" stroke-width="2"/>
    <text x="700" y="365" text-anchor="middle" font-family="Arial, sans-serif" font-size="9" fill="white">Analyser symptômes</text>
    
    <ellipse cx="700" cy="390" rx="80" ry="15" fill="#e91e63" stroke="#ad1457" stroke-width="2"/>
    <text x="700" y="395" text-anchor="middle" font-family="Arial, sans-serif" font-size="9" fill="white">Assistant IA</text>
    
    <ellipse cx="700" cy="420" rx="80" ry="15" fill="#e91e63" stroke="#ad1457" stroke-width="2"/>
    <text x="700" y="425" text-anchor="middle" font-family="Arial, sans-serif" font-size="9" fill="white">Détecter urgences</text>
  </g>
  
  <!-- Use Cases - Module Administration -->
  <g id="admin_module">
    <rect x="850" y="320" width="250" height="180" fill="#ecf0f1" stroke="#95a5a6" stroke-width="1" rx="5"/>
    <text x="975" y="335" text-anchor="middle" font-family="Arial, sans-serif" font-size="10" font-weight="bold" fill="#2c3e50">Module Administration</text>
    
    <ellipse cx="900" cy="360" rx="80" ry="15" fill="#2ecc71" stroke="#27ae60" stroke-width="2"/>
    <text x="900" y="365" text-anchor="middle" font-family="Arial, sans-serif" font-size="9" fill="white">Gérer utilisateurs</text>
    
    <ellipse cx="1050" cy="360" rx="80" ry="15" fill="#2ecc71" stroke="#27ae60" stroke-width="2"/>
    <text x="1050" y="365" text-anchor="middle" font-family="Arial, sans-serif" font-size="9" fill="white">Valider médecins</text>
    
    <ellipse cx="900" cy="390" rx="80" ry="15" fill="#2ecc71" stroke="#27ae60" stroke-width="2"/>
    <text x="900" y="395" text-anchor="middle" font-family="Arial, sans-serif" font-size="9" fill="white">Gérer institutions</text>
    
    <ellipse cx="1050" cy="390" rx="80" ry="15" fill="#2ecc71" stroke="#27ae60" stroke-width="2"/>
    <text x="1050" y="395" text-anchor="middle" font-family="Arial, sans-serif" font-size="9" fill="white">Voir statistiques</text>
    
    <ellipse cx="900" cy="420" rx="80" ry="15" fill="#2ecc71" stroke="#27ae60" stroke-width="2"/>
    <text x="900" y="425" text-anchor="middle" font-family="Arial, sans-serif" font-size="9" fill="white">Gérer spécialités</text>
    
    <ellipse cx="1050" cy="420" rx="80" ry="15" fill="#2ecc71" stroke="#27ae60" stroke-width="2"/>
    <text x="1050" y="425" text-anchor="middle" font-family="Arial, sans-serif" font-size="9" fill="white">Audit système</text>
    
    <ellipse cx="975" cy="450" rx="80" ry="15" fill="#2ecc71" stroke="#27ae60" stroke-width="2"/>
    <text x="975" y="455" text-anchor="middle" font-family="Arial, sans-serif" font-size="9" fill="white">Configurer système</text>
    
    <ellipse cx="975" cy="480" rx="80" ry="15" fill="#2ecc71" stroke="#27ae60" stroke-width="2"/>
    <text x="975" y="485" text-anchor="middle" font-family="Arial, sans-serif" font-size="9" fill="white">Gérer notifications</text>
  </g>
  
  <!-- Use Cases - Module Analyses -->
  <g id="analysis_module">
    <rect x="1150" y="320" width="130" height="120" fill="#ecf0f1" stroke="#95a5a6" stroke-width="1" rx="5"/>
    <text x="1215" y="335" text-anchor="middle" font-family="Arial, sans-serif" font-size="10" font-weight="bold" fill="#2c3e50">Module Analyses</text>
    
    <ellipse cx="1215" cy="360" rx="55" ry="15" fill="#34495e" stroke="#2c3e50" stroke-width="2"/>
    <text x="1215" y="365" text-anchor="middle" font-family="Arial, sans-serif" font-size="8" fill="white">Gérer résultats</text>
    
    <ellipse cx="1215" cy="390" rx="55" ry="15" fill="#34495e" stroke="#2c3e50" stroke-width="2"/>
    <text x="1215" y="395" text-anchor="middle" font-family="Arial, sans-serif" font-size="8" fill="white">Types analyses</text>
    
    <ellipse cx="1215" cy="420" rx="55" ry="15" fill="#34495e" stroke="#2c3e50" stroke-width="2"/>
    <text x="1215" y="425" text-anchor="middle" font-family="Arial, sans-serif" font-size="8" fill="white">Imagerie</text>
  </g>
  
  <!-- Associations - Patient -->
  <line x1="135" y1="200" x2="370" y2="170" stroke="#7f8c8d" stroke-width="1"/>
  <line x1="135" y1="200" x2="370" y2="195" stroke="#7f8c8d" stroke-width="1"/>
  <line x1="135" y1="240" x2="570" y2="170" stroke="#7f8c8d" stroke-width="1"/>
  <line x1="135" y1="240" x2="570" y2="210" stroke="#7f8c8d" stroke-width="1"/>
  <line x1="135" y1="260" x2="370" y2="360" stroke="#7f8c8d" stroke-width="1"/>
  <line x1="135" y1="260" x2="620" y2="360" stroke="#7f8c8d" stroke-width="1"/>
  <line x1="135" y1="260" x2="870" y2="170" stroke="#7f8c8d" stroke-width="1"/>
  
  <!-- Associations - Médecin -->
  <line x1="135" y1="380" x2="370" y2="170" stroke="#7f8c8d" stroke-width="1"/>
  <line x1="135" y1="400" x2="720" y2="170" stroke="#7f8c8d" stroke-width="1"/>
  <line x1="135" y1="400" x2="720" y2="210" stroke="#7f8c8d" stroke-width="1"/>
  <line x1="135" y1="400" x2="720" y2="250" stroke="#7f8c8d" stroke-width="1"/>
  <line x1="135" y1="420" x2="870" y2="170" stroke="#7f8c8d" stroke-width="1"/>
  <line x1="135" y1="420" x2="1020" y2="170" stroke="#7f8c8d" stroke-width="1"/>
  <line x1="135" y1="420" x2="870" y2="210" stroke="#7f8c8d" stroke-width="1"/>
  <line x1="135" y1="420" x2="945" y2="250" stroke="#7f8c8d" stroke-width="1"/>
  <line x1="135" y1="440" x2="1135" y2="360" stroke="#7f8c8d" stroke-width="1"/>
  <line x1="135" y1="440" x2="1135" y2="390" stroke="#7f8c8d" stroke-width="1"/>
  
  <!-- Associations - Administrateur -->
  <line x1="135" y1="560" x2="370" y2="170" stroke="#7f8c8d" stroke-width="1"/>
  <line x1="135" y1="580" x2="820" y2="360" stroke="#7f8c8d" stroke-width="1"/>
  <line x1="135" y1="600" x2="970" y2="360" stroke="#7f8c8d" stroke-width="1"/>
  <line x1="135" y1="600" x2="820" y2="390" stroke="#7f8c8d" stroke-width="1"/>
  <line x1="135" y1="620" x2="895" y2="420" stroke="#7f8c8d" stroke-width="1"/>
  <line x1="135" y1="620" x2="895" y2="450" stroke="#7f8c8d" stroke-width="1"/>
  
  <!-- Associations - Super Administrateur -->
  <line x1="135" y1="740" x2="370" y2="170" stroke="#7f8c8d" stroke-width="1"/>
  <line x1="135" y1="760" x2="820" y2="360" stroke="#7f8c8d" stroke-width="1"/>
  <line x1="135" y1="780" x2="895" y2="390" stroke="#7f8c8d" stroke-width="1"/>
  <line x1="135" y1="800" x2="895" y2="420" stroke="#7f8c8d" stroke-width="1"/>
  <line x1="135" y1="800" x2="895" y2="450" stroke="#7f8c8d" stroke-width="1"/>
  <line x1="135" y1="800" x2="895" y2="480" stroke="#7f8c8d" stroke-width="1"/>
  
  <!-- Associations - Institutions -->
  <line x1="1465" y1="200" x2="370" y2="170" stroke="#7f8c8d" stroke-width="1"/>
  <line x1="1465" y1="220" x2="870" y2="390" stroke="#7f8c8d" stroke-width="1"/>
  <line x1="1445" y1="240" x2="1135" y2="360" stroke="#7f8c8d" stroke-width="1"/>
  
  <!-- Associations - Pharmacie -->
  <line x1="1465" y1="380" x2="370" y2="170" stroke="#7f8c8d" stroke-width="1"/>
  <line x1="1445" y1="400" x2="1135" y2="360" stroke="#7f8c8d" stroke-width="1"/>
  
  <!-- Associations - Hôpital -->
  <line x1="1465" y1="560" x2="370" y2="170" stroke="#7f8c8d" stroke-width="1"/>
  <line x1="1445" y1="580" x2="1135" y2="360" stroke="#7f8c8d" stroke-width="1"/>
  
  <!-- Associations - Laboratoire -->
  <line x1="1465" y1="740" x2="370" y2="170" stroke="#7f8c8d" stroke-width="1"/>
  <line x1="1445" y1="760" x2="1135" y2="390" stroke="#7f8c8d" stroke-width="1"/>
  <line x1="1445" y1="780" x2="1135" y2="420" stroke="#7f8c8d" stroke-width="1"/>
  
  <!-- Legend -->
  <g transform="translate(350, 950)">
    <text x="0" y="0" font-family="Arial, sans-serif" font-size="12" font-weight="bold" fill="#2c3e50">Légende des modules :</text>
    <rect x="0" y="10" width="15" height="8" fill="#3498db"/>
    <text x="20" y="18" font-family="Arial, sans-serif" font-size="10" fill="#2c3e50">Authentification</text>
    <rect x="130" y="10" width="15" height="8" fill="#e74c3c"/>
    <text x="150" y="18" font-family="Arial, sans-serif" font-size="10" fill="#2c3e50">Gestion RDV</text>
    <rect x="250" y="10" width="15" height="8" fill="#f39c12"/>
    <text x="270" y="18" font-family="Arial, sans-serif" font-size="10" fill="#2c3e50">Dossiers Médicaux</text>
    <rect x="380" y="10" width="15" height="8" fill="#9b59b6"/>
    <text x="400" y="18" font-family="Arial, sans-serif" font-size="10" fill="#2c3e50">Géolocalisation</text>
    <rect x="500" y="10" width="15" height="8" fill="#e91e63"/>
    <text x="520" y="18" font-family="Arial, sans-serif" font-size="10" fill="#2c3e50">IA Médicale</text>
    <rect x="600" y="10" width="15" height="8" fill="#2ecc71"/>
    <text x="620" y="18" font-family="Arial, sans-serif" font-size="10" fill="#2c3e50">Administration</text>
    <rect x="720" y="10" width="15" height="8" fill="#34495e"/>
    <text x="740" y="18" font-family="Arial, sans-serif" font-size="10" fill="#2c3e50">Analyses</text>
  </g>
</svg> 